<svg id="svg" xmlns="http://www.w3.org/2000/svg" xmlns:xlink="http://www.w3.org/1999/xlink" width="400" height="400" viewBox="0, 0, 400,400"><g id="svgg"><path id="path0" d="M144.700 47.779 C 126.552 54.403,116.099 84.512,116.116 130.113 C 116.124 150.648,116.494 151.847,122.932 152.185 C 126.928 152.395,127.384 152.131,127.702 149.425 C 129.273 136.066,138.816 112.045,142.059 113.290 C 143.687 113.915,144.147 123.473,142.907 130.929 C 142.056 136.045,141.972 136.192,139.079 137.649 C 129.751 142.347,128.059 151.173,136.576 150.705 C 143.345 150.333,149.101 144.480,151.534 135.495 C 151.884 134.205,152.745 132.804,154.448 130.759 L 156.866 127.855 157.124 130.137 C 158.860 145.490,171.752 149.296,178.392 136.416 C 182.101 129.222,185.653 114.049,183.560 114.345 C 182.753 114.459,182.567 114.894,181.461 119.263 C 178.460 131.105,174.288 139.724,171.555 139.724 C 167.918 139.724,164.813 127.397,168.035 125.753 C 176.639 121.363,177.559 104.709,169.197 104.702 C 163.400 104.697,157.051 113.567,157.051 121.669 C 157.051 122.907,155.438 125.610,153.204 128.117 L 151.895 129.585 152.119 126.267 C 152.709 117.524,150.376 110.389,146.510 109.113 C 140.694 107.194,135.236 113.886,130.005 129.348 L 128.001 135.274 127.741 132.343 C 127.244 126.721,127.716 124.438,129.994 121.450 C 137.799 111.213,147.470 89.500,151.737 72.634 C 156.533 53.680,153.911 44.418,144.700 47.779 M149.549 50.802 C 153.564 56.780,146.498 85.254,135.487 107.465 C 132.737 113.014,128.407 120.419,128.095 120.107 C 127.493 119.505,129.703 98.451,131.454 88.111 C 135.960 61.495,144.670 43.536,149.549 50.802 M251.797 57.757 C 243.549 60.635,236.850 72.078,233.540 88.943 C 233.013 91.628,232.504 94.205,232.409 94.669 C 232.254 95.426,232.095 95.487,230.865 95.259 C 228.480 94.816,220.757 92.953,220.581 92.778 C 220.110 92.306,222.327 76.241,223.787 69.552 C 224.723 65.263,224.707 64.799,223.580 63.460 C 221.708 61.235,215.997 59.127,214.301 60.035 C 212.688 60.898,210.744 73.095,209.927 87.465 L 209.681 91.797 206.835 91.797 C 201.782 91.797,195.501 93.975,192.988 96.598 C 190.819 98.862,192.783 99.515,195.752 97.517 C 198.401 95.735,200.798 95.087,205.622 94.848 L 209.770 94.644 209.775 101.976 C 209.792 123.147,212.475 137.764,216.928 140.940 C 221.002 143.846,225.543 140.276,229.134 131.343 L 230.690 127.473 230.956 131.478 C 231.348 137.379,231.622 138.491,233.039 139.953 C 234.723 141.690,237.722 143.047,240.095 143.146 L 242.028 143.226 242.309 138.802 C 243.210 124.642,247.165 113.776,252.175 111.701 C 254.593 110.700,255.110 112.531,255.113 122.093 C 255.115 130.190,255.497 133.772,256.794 137.865 C 260.601 149.880,270.349 149.643,273.680 137.455 C 273.872 136.753,274.118 137.165,274.984 139.641 C 279.666 153.028,290.476 155.703,295.611 144.746 C 297.904 139.853,300.765 128.815,300.075 127.525 C 299.268 126.017,298.473 126.863,297.615 130.143 C 294.476 142.139,290.284 149.122,287.207 147.475 C 285.461 146.541,283.266 140.657,282.904 135.937 L 282.662 132.800 283.912 132.530 C 293.844 130.385,293.237 111.318,283.238 111.338 C 277.354 111.350,273.850 116.670,273.202 126.575 C 272.784 132.972,270.247 140.712,267.752 143.208 C 265.568 145.391,265.366 144.447,265.001 130.325 C 264.574 113.793,264.153 111.423,261.090 108.279 C 255.432 102.473,247.697 107.575,243.320 120.000 L 242.541 122.212 242.741 118.894 C 243.790 101.517,244.265 97.696,245.376 97.696 C 248.039 97.696,254.818 92.135,258.409 87.005 C 270.506 69.725,266.630 52.581,251.797 57.757 M261.156 60.493 C 267.767 65.693,258.224 87.863,246.769 93.919 C 243.954 95.407,243.974 95.408,244.247 93.733 C 248.200 69.479,255.168 55.783,261.156 60.493 M226.888 97.140 C 232.192 97.826,231.687 97.297,231.187 101.639 C 230.957 103.627,230.610 108.220,230.414 111.846 C 230.031 118.923,229.707 120.497,227.035 128.244 C 222.667 140.912,220.491 139.000,219.751 121.843 C 219.515 116.391,219.743 97.571,220.060 96.272 C 220.078 96.199,220.631 96.236,221.290 96.355 C 221.949 96.474,224.468 96.828,226.888 97.140 M170.913 110.534 C 171.396 113.756,169.460 119.955,167.382 121.835 C 165.551 123.493,167.087 111.656,169.124 108.415 C 169.859 107.246,170.541 108.053,170.913 110.534 M286.745 116.894 C 287.928 120.803,285.433 128.664,283.009 128.664 C 282.032 128.664,283.382 119.338,284.788 116.375 C 285.602 114.661,286.109 114.795,286.745 116.894 M141.567 140.104 C 141.567 141.880,137.611 147.029,135.610 147.858 C 133.025 148.929,133.135 145.790,135.775 143.147 C 137.598 141.322,141.567 139.237,141.567 140.104 M201.304 151.688 C 201.106 151.927,200.763 153.770,200.541 155.784 C 200.319 157.799,199.970 159.792,199.764 160.213 C 199.027 161.724,199.506 163.488,200.690 163.623 C 202.174 163.793,202.521 163.287,203.002 160.258 C 203.234 158.798,203.610 156.462,203.837 155.067 C 204.125 153.300,204.133 152.390,203.865 152.067 C 203.319 151.409,201.731 151.174,201.304 151.688 M175.138 159.051 C 174.638 159.654,174.733 160.652,175.369 161.466 C 175.610 161.775,176.564 162.970,177.489 164.123 C 178.414 165.275,179.171 166.364,179.171 166.542 C 179.171 168.246,182.927 169.466,183.159 167.837 C 183.513 165.347,176.389 157.544,175.138 159.051 M224.364 166.853 C 223.412 167.580,222.268 168.368,221.823 168.604 C 218.543 170.341,216.310 172.821,217.132 173.812 C 217.890 174.726,218.976 174.474,221.057 172.903 C 222.131 172.092,223.100 171.429,223.209 171.429 C 223.739 171.429,227.834 167.927,227.834 167.474 C 227.834 165.338,226.631 165.122,224.364 166.853 M192.542 168.641 C 191.481 168.898,190.536 169.031,190.442 168.937 C 190.348 168.843,188.810 169.558,187.025 170.527 C 177.936 175.457,173.027 186.027,175.562 195.207 C 175.954 196.627,176.315 198.091,176.366 198.461 C 176.416 198.832,177.481 200.690,178.732 202.590 C 181.403 206.648,182.509 208.690,182.663 209.850 C 182.724 210.313,182.971 211.853,183.211 213.272 C 183.548 215.265,183.547 216.330,183.207 217.949 C 182.283 222.346,183.479 224.866,187.097 226.143 C 188.111 226.501,189.272 226.974,189.677 227.195 C 190.083 227.415,192.177 227.670,194.331 227.760 C 200.291 228.011,201.168 227.099,202.240 219.539 C 202.723 216.135,207.194 209.032,208.855 209.032 C 209.462 209.032,215.091 203.150,215.794 201.781 C 216.356 200.687,217.181 198.477,218.203 195.332 C 220.534 188.158,216.512 177.235,209.801 172.514 C 208.668 171.718,207.410 170.809,207.005 170.494 C 204.709 168.716,196.549 167.670,192.542 168.641 M201.755 172.006 C 213.114 174.950,218.939 187.937,213.676 198.587 C 212.389 201.192,207.913 206.452,206.984 206.452 C 206.379 206.452,203.282 210.103,201.429 213.000 C 199.745 215.633,199.079 217.522,199.076 219.678 C 199.071 224.183,198.284 224.920,193.917 224.510 C 186.362 223.801,186.037 223.481,186.379 217.085 C 186.739 210.347,185.964 207.700,181.914 201.843 C 171.508 186.796,184.343 167.495,201.755 172.006 M160.829 181.798 C 159.230 183.426,160.900 184.491,166.198 185.218 C 168.492 185.533,170.517 185.883,170.699 185.996 C 171.286 186.358,172.535 185.286,172.535 184.420 C 172.535 183.425,171.934 183.144,168.111 182.346 C 163.761 181.438,161.360 181.258,160.829 181.798 M137.002 183.636 C 122.423 187.058,111.727 215.621,109.876 256.070 C 107.480 308.444,128.834 326.239,145.220 285.522 C 146.001 283.581,146.719 281.913,146.817 281.816 C 146.914 281.719,147.106 282.881,147.243 284.398 C 148.884 302.506,161.634 306.718,168.138 291.301 L 169.152 288.898 169.574 290.532 C 172.873 303.317,180.802 306.852,188.271 298.867 C 191.635 295.271,195.643 288.229,197.802 282.120 C 198.903 279.007,199.078 279.760,199.078 287.596 L 199.078 295.007 195.803 298.468 C 176.108 319.279,172.713 352.811,190.302 352.811 C 200.102 352.811,205.031 338.605,208.145 301.382 L 208.793 293.641 211.520 290.691 C 213.019 289.069,215.271 286.207,216.524 284.331 L 218.802 280.921 219.071 286.359 C 219.494 294.908,219.904 298.356,220.629 299.463 C 221.607 300.956,225.493 302.718,228.306 302.944 C 232.071 303.246,232.101 303.206,232.380 297.369 C 233.080 282.792,236.734 270.680,242.070 265.259 C 246.188 261.075,246.681 262.229,247.022 276.866 C 247.246 286.461,247.370 288.061,248.072 290.447 C 253.133 307.644,265.578 301.242,269.690 279.327 C 270.051 277.403,270.218 277.754,270.992 282.066 C 273.078 293.680,276.541 297.867,281.910 295.267 C 286.300 293.142,290.303 284.691,294.017 269.709 C 295.998 261.717,296.088 260.546,294.703 260.713 C 293.782 260.824,293.657 261.126,291.948 267.391 C 283.727 297.539,279.985 295.883,280.040 262.120 C 280.053 254.111,280.183 246.623,280.329 245.482 L 280.595 243.406 282.878 242.957 C 292.488 241.070,302.854 234.869,299.700 232.894 C 299.264 232.621,298.640 232.901,297.120 234.055 C 294.473 236.065,290.781 237.568,286.200 238.501 C 280.577 239.647,280.838 239.735,281.084 236.774 C 281.198 235.406,281.472 232.046,281.692 229.309 C 281.913 226.571,282.232 223.585,282.402 222.673 C 282.963 219.653,280.425 217.458,275.754 216.925 C 270.503 216.326,270.002 217.729,269.271 235.048 L 269.021 240.972 265.757 241.589 C 257.667 243.118,248.970 247.901,249.289 250.645 C 249.462 252.133,250.507 252.023,252.446 250.313 C 255.343 247.759,258.757 246.325,264.291 245.336 C 266.037 245.024,267.815 244.694,268.243 244.602 C 268.999 244.441,269.017 244.531,268.860 247.840 C 268.771 249.712,268.862 255.143,269.062 259.908 L 269.425 268.571 268.129 274.470 C 265.708 285.490,262.912 293.312,260.602 295.525 C 258.659 297.387,258.450 296.049,258.072 279.263 C 257.836 268.815,257.618 264.785,257.215 263.410 C 255.645 258.057,253.664 256.212,249.505 256.229 C 243.488 256.254,238.015 262.754,233.874 274.793 L 232.590 278.525 232.713 273.691 L 232.835 268.856 235.819 265.667 C 246.739 253.995,255.673 235.150,257.520 219.894 C 259.761 201.381,256.136 196.170,244.859 201.692 C 230.154 208.894,221.697 231.314,219.055 270.098 C 218.682 275.571,216.579 279.600,210.441 286.600 L 209.179 288.038 209.634 283.282 C 209.884 280.666,210.100 277.171,210.114 275.515 L 210.138 272.505 208.432 271.003 C 206.155 268.999,203.106 267.554,200.739 267.358 C 198.395 267.164,198.481 267.049,197.187 272.073 C 194.656 281.894,188.017 295.645,184.293 298.778 C 176.642 305.216,179.849 271.725,187.708 263.112 C 189.980 260.621,191.196 263.150,190.087 268.061 C 189.049 272.658,189.684 273.867,192.910 273.434 C 198.242 272.719,196.737 262.353,190.853 259.261 C 181.731 254.467,171.196 263.188,169.052 277.308 C 167.821 285.415,162.608 296.675,160.243 296.333 C 157.594 295.951,156.913 279.929,158.960 266.127 C 159.543 262.193,158.102 260.091,153.012 257.450 C 147.472 254.576,147.015 255.205,146.735 266.111 L 146.511 274.839 145.108 278.525 C 138.989 294.605,130.592 305.374,126.487 302.409 C 123.235 300.061,121.667 291.333,121.666 275.576 C 121.665 264.231,121.664 264.237,124.198 262.815 C 136.514 255.905,154.186 221.890,155.779 202.028 C 156.822 189.027,148.550 180.925,137.002 183.636 M146.451 186.972 C 156.996 192.254,148.430 227.637,131.028 250.677 C 128.447 254.093,122.560 260.194,122.195 259.829 C 121.545 259.179,125.052 233.317,127.408 221.382 C 132.664 194.764,139.033 183.256,146.451 186.972 M222.516 191.674 C 222.006 192.238,221.960 192.536,222.288 193.149 C 222.786 194.079,222.120 193.883,226.912 194.514 C 229.143 194.808,231.659 195.142,232.503 195.255 C 233.810 195.430,234.101 195.344,234.459 194.675 C 235.136 193.411,234.607 192.495,233.067 192.264 C 232.318 192.152,230.295 191.813,228.571 191.512 C 224.437 190.788,223.291 190.818,222.516 191.674 M254.170 203.501 C 255.832 206.354,255.287 217.993,253.082 226.728 C 250.114 238.487,241.703 255.011,234.879 262.488 L 233.029 264.516 233.012 263.154 C 232.912 255.002,236.107 235.170,239.253 224.409 C 243.909 208.488,251.157 198.328,254.170 203.501 M172.719 204.434 C 171.908 205.146,170.393 206.302,169.352 207.003 C 167.252 208.417,166.822 209.109,167.388 210.165 C 168.118 211.529,169.522 211.021,173.088 208.103 C 174.101 207.274,175.397 206.303,175.967 205.947 C 176.756 205.454,176.976 205.063,176.889 204.309 C 176.703 202.699,174.626 202.761,172.719 204.434 M212.205 208.878 C 211.689 210.223,211.892 210.553,216.892 216.498 C 218.367 218.252,219.323 218.650,219.990 217.788 C 220.906 216.604,220.737 216.063,218.679 213.586 C 217.526 212.197,216.119 210.438,215.553 209.677 C 214.435 208.174,212.640 207.745,212.205 208.878 M183.112 228.092 C 182.300 228.303,182.384 230.014,183.226 230.427 C 184.962 231.278,185.997 231.521,189.585 231.922 C 191.765 232.166,193.548 232.486,193.548 232.633 C 193.548 233.066,197.357 233.314,198.086 232.930 C 198.561 232.679,198.720 232.240,198.639 231.405 L 198.525 230.233 194.654 229.579 C 188.755 228.581,184.168 227.857,183.963 227.890 C 183.862 227.906,183.479 227.997,183.112 228.092 M182.581 233.158 C 181.401 234.550,182.340 235.503,185.321 235.937 C 186.500 236.109,188.212 236.421,189.124 236.631 C 190.037 236.840,192.318 237.127,194.194 237.268 L 197.604 237.525 197.604 236.379 C 197.604 234.714,197.002 234.490,189.862 233.497 C 183.260 232.578,183.079 232.570,182.581 233.158 M185.171 238.249 C 183.748 240.089,184.537 240.751,189.083 241.526 C 192.989 242.192,193.663 242.019,193.475 240.400 C 193.360 239.411,193.418 239.436,188.387 238.139 C 186.591 237.675,185.589 237.709,185.171 238.249 M150.230 244.298 C 145.755 245.509,148.015 251.870,153.893 254.607 C 156.828 255.974,160.571 255.567,161.246 253.808 C 163.025 249.171,155.675 242.825,150.230 244.298 M198.884 304.608 C 198.780 306.687,198.526 312.037,198.319 316.498 C 197.191 340.797,194.464 350.630,189.217 349.320 C 178.486 346.642,182.797 319.359,196.459 303.485 C 199.290 300.195,199.107 300.110,198.884 304.608 " stroke="none" fill="#000000" fill-rule="evenodd"></path></g></svg>